<svg xmlns="http://www.w3.org/2000/svg" xmlns:xlink="http://www.w3.org/1999/xlink" viewBox="0 0 184.39 198.93">
    <defs>
        <linearGradient id="logo-gradient" y1="99.47" x2="184.39" y2="99.47" gradientUnits="userSpaceOnUse">
            <stop offset="0" stop-color="#5cbceb"></stop>
            <stop offset="0.06" stop-color="#66bbe9"></stop>
            <stop offset="0.36" stop-color="#91b4df"></stop>
            <stop offset="0.62" stop-color="#b1afd7"></stop>
            <stop offset="0.85" stop-color="#c4acd3"></stop>
            <stop offset="1" stop-color="#cbabd1"></stop>
        </linearGradient>
    </defs>
    <path class="logo-path" d="M180.87,142.37q-12-11-24-22c-5.07-4.62-8.76-3.94-12.16,2.15A95.11,95.11,0,0,1,114.31,156c-14.33,9.57-29.87,15.53-47.39,14.53-14.61-.83-27.38-6.5-36.45-18.05C7.05,122.65,6.34,79.93,28.55,49.26c12.54-17.33,29.5-25.19,51-21.59a67.2,67.2,0,0,1,22.19,8c-1.24.22-1.68.35-2.12.37-38.4,2-65.54,41.13-49.82,79.9,7.42,18.29,21.4,29.67,40.81,34,4.14.93,6.78-.34,8-3.53,1.58-4-.59-7.45-5.59-8.57C69.08,132.51,55.23,109.28,58,88c4.24-32.48,40.57-50,68.38-32.71,8.75,5.44,13.87,13.77,18.78,22.36,2.8,4.9,6.85,5.66,11,1.86Q169,67.91,181.58,56.2c3.29-3.05,3.55-6.09,1.12-10C161.23,11.84,119.47-6.16,79.94,1.91A99.66,99.66,0,0,0,1,113.54c6.31,45,42,80.19,87,84.76,40.06,4.07,71.42-11.53,94.24-44.53C185.51,149,185.07,146.23,180.87,142.37ZM169.93,49.92,152.87,65.58C135.42,39.4,111.93,22.2,81,14.83,112.42,6.92,150.53,20.61,169.93,49.92ZM76.57,183c16.09-1.55,30.4-7.19,43.61-15.82s23.83-19.94,32.58-33.57l17,15.55C158,175.76,100.38,196.78,76.57,183Z"></path>
</svg>